<svg xmlns="http://www.w3.org/2000/svg" xmlns:xlink="http://www.w3.org/1999/xlink" viewBox="0 0 77 96">
    <defs>
        <path id="a" d="M0 94.293h76.798V0H0z" />
    </defs>
    <g fill="none" fill-rule="evenodd" transform="translate(0 1)">
        <path fill="#ba0c2f"
            d="m51.595 51.37-26.01.014c-7.12-.027-12.89-5.757-12.898-12.829l-.026-19.624h17.186v19.623h17.336V18.931H64.37v18.796c.015.269.025.541.025.815 0 7.044-5.72 12.762-12.799 12.829ZM12.661 15.46H64.37V.062H12.66v15.396Z" />
        <path stroke="#ba0c2f" stroke-width=".5"
            d="m51.595 51.37-26.01.014c-7.12-.027-12.89-5.757-12.898-12.829l-.026-19.624h17.186v19.623h17.336V18.931H64.37v18.796c.015.269.025.541.025.815 0 7.044-5.72 12.762-12.799 12.829ZM12.661 15.46H64.37V.062H12.66v15.396Z" />
        <path fill="#9d9d9d"
            d="m20.619 60.206-2.256 4.84h4.558l-2.302-4.84Zm-1.603-5.382h3.203l7.813 16.43h-4.16l-1.534-3.228h-7.361l-1.502 3.228h-4.14l7.68-16.43ZM57.039 55.7v4.004c-2.075-1.066-3.89-1.6-5.448-1.6-1.557 0-2.804.459-3.74 1.377-.934.916-1.4 2.151-1.4 3.703 0 1.467.49 2.642 1.474 3.52.983.884 2.297 1.322 3.943 1.322 1.44 0 3.164-.495 5.17-1.488v3.978c-2.25.642-4.122.965-5.622.965-2.58 0-4.771-.813-6.572-2.435-1.802-1.621-2.703-3.602-2.703-5.937 0-2.38.918-4.39 2.753-6.038 1.838-1.648 4.067-2.473 6.697-2.473 1.695 0 3.51.369 5.448 1.101M67.213 60.206l-2.256 4.84h4.558l-2.302-4.84Zm-1.604-5.382h3.204l7.813 16.43h-4.16l-1.534-3.228h-7.36l-1.503 3.228H57.93l7.68-16.43ZM43.708 70.086a8.364 8.364 0 0 1-1.855-2.372h-5.92v-12.89h-4.104v16.43H45.32a9.284 9.284 0 0 1-1.612-1.168M12.742 54.824H0v3.493h4.368v12.937H8.5V58.317h4.23zM4.478 74.67h1.73v4.449c0 .413.128.745.384.996.256.252.594.377 1.011.377.48 0 .852-.126 1.116-.38.265-.252.397-.609.397-1.071v-4.37h1.724v4.708c0 .413-.12.842-.36 1.288-.24.445-.608.785-1.106 1.021a3.843 3.843 0 0 1-1.672.355c-1.115 0-1.932-.278-2.449-.833-.517-.556-.775-1.14-.775-1.753V74.67ZM17.795 74.67h1.717v7.274h-1.709l-3.723-4.709v4.709h-1.755V74.67h1.735l3.735 4.675z" />
        <mask id="b" fill="#fff">
            <use xlink:href="#a" />
        </mask>
        <path fill="#9d9d9d"
            d="M20.935 81.944h1.755V74.67h-1.755zM23.524 74.67H25.3l2.059 4.837 2.063-4.837H31.2l-3.082 7.274h-1.523zM32.14 74.67h4.583v1.441h-2.829v1.468h2.829v1.418h-2.829v1.506h2.829v1.441H32.14zM39.832 75.966v1.895h.38c.917 0 1.375-.334 1.375-1.003 0-.273-.12-.49-.358-.65-.238-.161-.57-.242-.992-.242h-.405Zm-1.767-1.295h2.682c.815 0 1.46.192 1.934.575.473.384.71.903.71 1.556 0 .372-.108.76-.325 1.163-.218.402-.618.718-1.203.946l2.279 3.032h-2.016l-2.107-2.813h-.2v2.813h-1.754v-7.272ZM49.93 75.33l-1.091 1.069c-.575-.303-.988-.455-1.24-.455a.712.712 0 0 0-.503.197.619.619 0 0 0-.21.468c0 .358.363.669 1.091.931.533.203.937.387 1.21.55.272.166.5.393.684.684.184.293.277.609.277.948 0 .625-.283 1.167-.847 1.63-.564.46-1.23.691-2 .691-.842 0-1.675-.355-2.498-1.064l1.153-1.201c.517.476 1 .714 1.45.714.212 0 .414-.084.608-.251.194-.167.29-.343.29-.527 0-.38-.448-.715-1.344-1.005-.513-.166-.876-.322-1.091-.469a1.714 1.714 0 0 1-.542-.636 1.809 1.809 0 0 1-.22-.857c0-.645.235-1.17.706-1.573.472-.402 1.086-.603 1.848-.603.901 0 1.657.253 2.269.758M51.192 81.944h1.755V74.67h-1.755zM56.18 76.044v4.493h.695c.72 0 1.31-.176 1.773-.526.463-.352.695-.937.695-1.757a2.39 2.39 0 0 0-.335-1.265 1.679 1.679 0 0 0-.97-.748 4.113 4.113 0 0 0-1.213-.197h-.645Zm-1.767-1.374h2.778c1.187 0 2.142.335 2.865 1.003.723.669 1.085 1.549 1.085 2.643 0 1.096-.373 1.975-1.119 2.636s-1.74.992-2.98.992h-2.629V74.67ZM65.004 77.052l-.957 2.144h1.935l-.978-2.144Zm-.679-2.382h1.359l3.317 7.274h-1.766l-.652-1.43H63.46l-.64 1.43h-1.756l3.261-7.274ZM71.837 76.044v4.493h.695c.719 0 1.31-.176 1.773-.526.463-.352.695-.937.695-1.757a2.39 2.39 0 0 0-.335-1.265 1.679 1.679 0 0 0-.97-.748 4.113 4.113 0 0 0-1.213-.197h-.645ZM70.07 74.67h2.778c1.187 0 2.142.335 2.865 1.003.723.669 1.085 1.549 1.085 2.643 0 1.096-.374 1.975-1.12 2.636-.745.661-1.738.992-2.98.992H70.07V74.67ZM32.99 87.871v.994c-.698-.34-1.34-.51-1.926-.51-.752 0-1.386.242-1.9.723a2.338 2.338 0 0 0-.773 1.777c0 .716.264 1.313.79 1.792.526.478 1.186.717 1.98.717.576 0 1.185-.18 1.83-.54v1.005a4.028 4.028 0 0 1-1.906.464c-1.003 0-1.86-.337-2.572-1.011-.712-.674-1.067-1.486-1.067-2.437 0-.934.35-1.734 1.049-2.4.7-.665 1.542-.998 2.529-.998.633 0 1.29.141 1.966.424M33.969 87.649h.884v2.472h3.095v-2.472h.875v6.427h-.875v-3.087h-3.095v3.087h-.884zM40.105 94.076h.875v-6.427h-.875zM42.426 87.649h.874v5.559h2.109v.868h-2.983zM46.128 87.649h3.588v.878h-2.714v1.605h2.714v.867h-2.714v2.209h2.714v.868h-3.588zM4.397 84.389h72.09v-.653H4.397z" />
    </g>
</svg>